<?xml version="1.0" standalone="no"?><!DOCTYPE svg PUBLIC "-//W3C//DTD SVG 1.1//EN" "http://www.w3.org/Graphics/SVG/1.1/DTD/svg11.dtd"><svg t="1663559236130" class="icon" viewBox="0 0 1024 1024" version="1.1" xmlns="http://www.w3.org/2000/svg" p-id="11571" xmlns:xlink="http://www.w3.org/1999/xlink" width="200" height="200"><path d="M459.008 504.661333L763.733333 199.936A42.666667 42.666667 0 0 1 824.064 260.266667l-30.165333 30.208 75.392 75.392A42.666667 42.666667 0 0 1 808.96 426.24l-75.434667-75.434667-60.330666 60.330667 60.330666 60.330667a42.666667 42.666667 0 0 1-60.330666 60.373333l-60.330667-60.373333-93.525333 93.525333a213.418667 213.418667 0 0 1-328.874667 268.544 213.333333 213.333333 0 0 1 268.544-328.874667z m8.789333 143.530667A128 128 0 0 0 250.88 592.213333a128 128 0 0 0 180.992 180.992 128.170667 128.170667 0 0 0 35.925333-125.013333z" fill="#5D6E7F" p-id="11572"></path></svg>